<?xml version="1.0" encoding="utf-8" standalone="no"?>
<!DOCTYPE svg PUBLIC "-//W3C//DTD SVG 1.1//EN"
  "http://www.w3.org/Graphics/SVG/1.1/DTD/svg11.dtd">
<svg height="288pt" version="1.1" viewBox="0 0 432 288" width="432pt" xmlns="http://www.w3.org/2000/svg" xmlns:xlink="http://www.w3.org/1999/xlink">
 <metadata>
  <rdf:RDF xmlns:cc="http://creativecommons.org/ns#" xmlns:dc="http://purl.org/dc/elements/1.1/" xmlns:rdf="http://www.w3.org/1999/02/22-rdf-syntax-ns#">
   <cc:Work>
    <dc:type rdf:resource="http://purl.org/dc/dcmitype/StillImage"/>
    <dc:date>2022-12-26T14:23:03.943989</dc:date>
    <dc:format>image/svg+xml</dc:format>
    <dc:creator>
     <cc:Agent>
      <dc:title>Matplotlib v3.4.2, https://matplotlib.org/</dc:title>
     </cc:Agent>
    </dc:creator>
   </cc:Work>
  </rdf:RDF>
 </metadata>
 <defs>
  <style type="text/css">*{stroke-linecap:butt;stroke-linejoin:round;}</style>
 </defs>
 <g id="figure_1">
  <g id="patch_1">
   <path d="M 0 288 
L 432 288 
L 432 0 
L 0 0 
z
" style="fill:#ffffff;"/>
  </g>
  <g id="axes_1">
   <g id="patch_2">
    <path d="M 34.741356 258.225354 
L 429.165354 258.225354 
L 429.165354 2.834646 
L 34.741356 2.834646 
z
" style="fill:#ffffff;"/>
   </g>
   <g id="matplotlib.axis_1">
    <g id="xtick_1">
     <g id="line2d_1">
      <path clip-path="url(#p6dc8a689a0)" d="M 56.435378 258.225354 
L 56.435378 2.834646 
" style="fill:none;stroke:#000000;stroke-linecap:square;stroke-opacity:0.1;stroke-width:0.5;"/>
     </g>
     <g id="line2d_2">
      <defs>
       <path d="M 0 0 
L 0 -2.5 
" id="mc3bfa353c5" style="stroke:#000000;stroke-width:0.5;"/>
      </defs>
      <g>
       <use style="stroke:#000000;stroke-width:0.5;" x="56.435378" xlink:href="#mc3bfa353c5" y="258.225354"/>
      </g>
     </g>
     <g id="text_1">
      <!-- $0$ -->
      <g transform="translate(53.875378 267.804104)scale(0.08 -0.08)">
       <defs>
        <path d="M 2034 4250 
Q 1547 4250 1301 3770 
Q 1056 3291 1056 2328 
Q 1056 1369 1301 889 
Q 1547 409 2034 409 
Q 2525 409 2770 889 
Q 3016 1369 3016 2328 
Q 3016 3291 2770 3770 
Q 2525 4250 2034 4250 
z
M 2034 4750 
Q 2819 4750 3233 4129 
Q 3647 3509 3647 2328 
Q 3647 1150 3233 529 
Q 2819 -91 2034 -91 
Q 1250 -91 836 529 
Q 422 1150 422 2328 
Q 422 3509 836 4129 
Q 1250 4750 2034 4750 
z
" id="DejaVuSans-30" transform="scale(0.015625)"/>
       </defs>
       <use transform="translate(0 0.78125)" xlink:href="#DejaVuSans-30"/>
      </g>
     </g>
    </g>
    <g id="xtick_2">
     <g id="line2d_3">
      <path clip-path="url(#p6dc8a689a0)" d="M 145.080821 258.225354 
L 145.080821 2.834646 
" style="fill:none;stroke:#000000;stroke-linecap:square;stroke-opacity:0.1;stroke-width:0.5;"/>
     </g>
     <g id="line2d_4">
      <g>
       <use style="stroke:#000000;stroke-width:0.5;" x="145.080821" xlink:href="#mc3bfa353c5" y="258.225354"/>
      </g>
     </g>
     <g id="text_2">
      <!-- $5$ -->
      <g transform="translate(142.520821 267.804104)scale(0.08 -0.08)">
       <defs>
        <path d="M 691 4666 
L 3169 4666 
L 3169 4134 
L 1269 4134 
L 1269 2991 
Q 1406 3038 1543 3061 
Q 1681 3084 1819 3084 
Q 2600 3084 3056 2656 
Q 3513 2228 3513 1497 
Q 3513 744 3044 326 
Q 2575 -91 1722 -91 
Q 1428 -91 1123 -41 
Q 819 9 494 109 
L 494 744 
Q 775 591 1075 516 
Q 1375 441 1709 441 
Q 2250 441 2565 725 
Q 2881 1009 2881 1497 
Q 2881 1984 2565 2268 
Q 2250 2553 1709 2553 
Q 1456 2553 1204 2497 
Q 953 2441 691 2322 
L 691 4666 
z
" id="DejaVuSans-35" transform="scale(0.015625)"/>
       </defs>
       <use transform="translate(0 0.09375)" xlink:href="#DejaVuSans-35"/>
      </g>
     </g>
    </g>
    <g id="xtick_3">
     <g id="line2d_5">
      <path clip-path="url(#p6dc8a689a0)" d="M 233.726264 258.225354 
L 233.726264 2.834646 
" style="fill:none;stroke:#000000;stroke-linecap:square;stroke-opacity:0.1;stroke-width:0.5;"/>
     </g>
     <g id="line2d_6">
      <g>
       <use style="stroke:#000000;stroke-width:0.5;" x="233.726264" xlink:href="#mc3bfa353c5" y="258.225354"/>
      </g>
     </g>
     <g id="text_3">
      <!-- $10$ -->
      <g transform="translate(228.606264 267.804104)scale(0.08 -0.08)">
       <defs>
        <path d="M 794 531 
L 1825 531 
L 1825 4091 
L 703 3866 
L 703 4441 
L 1819 4666 
L 2450 4666 
L 2450 531 
L 3481 531 
L 3481 0 
L 794 0 
L 794 531 
z
" id="DejaVuSans-31" transform="scale(0.015625)"/>
       </defs>
       <use transform="translate(0 0.78125)" xlink:href="#DejaVuSans-31"/>
       <use transform="translate(63.623047 0.78125)" xlink:href="#DejaVuSans-30"/>
      </g>
     </g>
    </g>
    <g id="xtick_4">
     <g id="line2d_7">
      <path clip-path="url(#p6dc8a689a0)" d="M 322.371707 258.225354 
L 322.371707 2.834646 
" style="fill:none;stroke:#000000;stroke-linecap:square;stroke-opacity:0.1;stroke-width:0.5;"/>
     </g>
     <g id="line2d_8">
      <g>
       <use style="stroke:#000000;stroke-width:0.5;" x="322.371707" xlink:href="#mc3bfa353c5" y="258.225354"/>
      </g>
     </g>
     <g id="text_4">
      <!-- $15$ -->
      <g transform="translate(317.251707 267.804104)scale(0.08 -0.08)">
       <use transform="translate(0 0.09375)" xlink:href="#DejaVuSans-31"/>
       <use transform="translate(63.623047 0.09375)" xlink:href="#DejaVuSans-35"/>
      </g>
     </g>
    </g>
    <g id="xtick_5">
     <g id="line2d_9">
      <path clip-path="url(#p6dc8a689a0)" d="M 411.01715 258.225354 
L 411.01715 2.834646 
" style="fill:none;stroke:#000000;stroke-linecap:square;stroke-opacity:0.1;stroke-width:0.5;"/>
     </g>
     <g id="line2d_10">
      <g>
       <use style="stroke:#000000;stroke-width:0.5;" x="411.01715" xlink:href="#mc3bfa353c5" y="258.225354"/>
      </g>
     </g>
     <g id="text_5">
      <!-- $20$ -->
      <g transform="translate(405.89715 267.804104)scale(0.08 -0.08)">
       <defs>
        <path d="M 1228 531 
L 3431 531 
L 3431 0 
L 469 0 
L 469 531 
Q 828 903 1448 1529 
Q 2069 2156 2228 2338 
Q 2531 2678 2651 2914 
Q 2772 3150 2772 3378 
Q 2772 3750 2511 3984 
Q 2250 4219 1831 4219 
Q 1534 4219 1204 4116 
Q 875 4013 500 3803 
L 500 4441 
Q 881 4594 1212 4672 
Q 1544 4750 1819 4750 
Q 2544 4750 2975 4387 
Q 3406 4025 3406 3419 
Q 3406 3131 3298 2873 
Q 3191 2616 2906 2266 
Q 2828 2175 2409 1742 
Q 1991 1309 1228 531 
z
" id="DejaVuSans-32" transform="scale(0.015625)"/>
       </defs>
       <use transform="translate(0 0.78125)" xlink:href="#DejaVuSans-32"/>
       <use transform="translate(63.623047 0.78125)" xlink:href="#DejaVuSans-30"/>
      </g>
     </g>
    </g>
    <g id="text_6">
     <!-- radius -->
     <g transform="translate(214.95148 281.826136)scale(0.11 -0.11)">
      <defs>
       <path d="M 2631 2963 
Q 2534 3019 2420 3045 
Q 2306 3072 2169 3072 
Q 1681 3072 1420 2755 
Q 1159 2438 1159 1844 
L 1159 0 
L 581 0 
L 581 3500 
L 1159 3500 
L 1159 2956 
Q 1341 3275 1631 3429 
Q 1922 3584 2338 3584 
Q 2397 3584 2469 3576 
Q 2541 3569 2628 3553 
L 2631 2963 
z
" id="DejaVuSans-72" transform="scale(0.015625)"/>
       <path d="M 2194 1759 
Q 1497 1759 1228 1600 
Q 959 1441 959 1056 
Q 959 750 1161 570 
Q 1363 391 1709 391 
Q 2188 391 2477 730 
Q 2766 1069 2766 1631 
L 2766 1759 
L 2194 1759 
z
M 3341 1997 
L 3341 0 
L 2766 0 
L 2766 531 
Q 2569 213 2275 61 
Q 1981 -91 1556 -91 
Q 1019 -91 701 211 
Q 384 513 384 1019 
Q 384 1609 779 1909 
Q 1175 2209 1959 2209 
L 2766 2209 
L 2766 2266 
Q 2766 2663 2505 2880 
Q 2244 3097 1772 3097 
Q 1472 3097 1187 3025 
Q 903 2953 641 2809 
L 641 3341 
Q 956 3463 1253 3523 
Q 1550 3584 1831 3584 
Q 2591 3584 2966 3190 
Q 3341 2797 3341 1997 
z
" id="DejaVuSans-61" transform="scale(0.015625)"/>
       <path d="M 2906 2969 
L 2906 4863 
L 3481 4863 
L 3481 0 
L 2906 0 
L 2906 525 
Q 2725 213 2448 61 
Q 2172 -91 1784 -91 
Q 1150 -91 751 415 
Q 353 922 353 1747 
Q 353 2572 751 3078 
Q 1150 3584 1784 3584 
Q 2172 3584 2448 3432 
Q 2725 3281 2906 2969 
z
M 947 1747 
Q 947 1113 1208 752 
Q 1469 391 1925 391 
Q 2381 391 2643 752 
Q 2906 1113 2906 1747 
Q 2906 2381 2643 2742 
Q 2381 3103 1925 3103 
Q 1469 3103 1208 2742 
Q 947 2381 947 1747 
z
" id="DejaVuSans-64" transform="scale(0.015625)"/>
       <path d="M 603 3500 
L 1178 3500 
L 1178 0 
L 603 0 
L 603 3500 
z
M 603 4863 
L 1178 4863 
L 1178 4134 
L 603 4134 
L 603 4863 
z
" id="DejaVuSans-69" transform="scale(0.015625)"/>
       <path d="M 544 1381 
L 544 3500 
L 1119 3500 
L 1119 1403 
Q 1119 906 1312 657 
Q 1506 409 1894 409 
Q 2359 409 2629 706 
Q 2900 1003 2900 1516 
L 2900 3500 
L 3475 3500 
L 3475 0 
L 2900 0 
L 2900 538 
Q 2691 219 2414 64 
Q 2138 -91 1772 -91 
Q 1169 -91 856 284 
Q 544 659 544 1381 
z
M 1991 3584 
L 1991 3584 
z
" id="DejaVuSans-75" transform="scale(0.015625)"/>
       <path d="M 2834 3397 
L 2834 2853 
Q 2591 2978 2328 3040 
Q 2066 3103 1784 3103 
Q 1356 3103 1142 2972 
Q 928 2841 928 2578 
Q 928 2378 1081 2264 
Q 1234 2150 1697 2047 
L 1894 2003 
Q 2506 1872 2764 1633 
Q 3022 1394 3022 966 
Q 3022 478 2636 193 
Q 2250 -91 1575 -91 
Q 1294 -91 989 -36 
Q 684 19 347 128 
L 347 722 
Q 666 556 975 473 
Q 1284 391 1588 391 
Q 1994 391 2212 530 
Q 2431 669 2431 922 
Q 2431 1156 2273 1281 
Q 2116 1406 1581 1522 
L 1381 1569 
Q 847 1681 609 1914 
Q 372 2147 372 2553 
Q 372 3047 722 3315 
Q 1072 3584 1716 3584 
Q 2034 3584 2315 3537 
Q 2597 3491 2834 3397 
z
" id="DejaVuSans-73" transform="scale(0.015625)"/>
      </defs>
      <use xlink:href="#DejaVuSans-72"/>
      <use x="41.113281" xlink:href="#DejaVuSans-61"/>
      <use x="102.392578" xlink:href="#DejaVuSans-64"/>
      <use x="165.869141" xlink:href="#DejaVuSans-69"/>
      <use x="193.652344" xlink:href="#DejaVuSans-75"/>
      <use x="257.03125" xlink:href="#DejaVuSans-73"/>
     </g>
    </g>
   </g>
   <g id="matplotlib.axis_2">
    <g id="ytick_1">
     <g id="line2d_11">
      <path clip-path="url(#p6dc8a689a0)" d="M 34.741356 250.997315 
L 429.165354 250.997315 
" style="fill:none;stroke:#000000;stroke-linecap:square;stroke-opacity:0.1;stroke-width:0.5;"/>
     </g>
     <g id="line2d_12">
      <defs>
       <path d="M 0 0 
L 2.5 0 
" id="mcdf18b0e30" style="stroke:#000000;stroke-width:0.5;"/>
      </defs>
      <g>
       <use style="stroke:#000000;stroke-width:0.5;" x="34.741356" xlink:href="#mcdf18b0e30" y="250.997315"/>
      </g>
     </g>
     <g id="text_7">
      <!-- $0.0$ -->
      <g transform="translate(18.441356 254.03669)scale(0.08 -0.08)">
       <defs>
        <path d="M 684 794 
L 1344 794 
L 1344 0 
L 684 0 
L 684 794 
z
" id="DejaVuSans-2e" transform="scale(0.015625)"/>
       </defs>
       <use transform="translate(0 0.78125)" xlink:href="#DejaVuSans-30"/>
       <use transform="translate(63.623047 0.78125)" xlink:href="#DejaVuSans-2e"/>
       <use transform="translate(95.410156 0.78125)" xlink:href="#DejaVuSans-30"/>
      </g>
     </g>
    </g>
    <g id="ytick_2">
     <g id="line2d_13">
      <path clip-path="url(#p6dc8a689a0)" d="M 34.741356 175.379712 
L 429.165354 175.379712 
" style="fill:none;stroke:#000000;stroke-linecap:square;stroke-opacity:0.1;stroke-width:0.5;"/>
     </g>
     <g id="line2d_14">
      <g>
       <use style="stroke:#000000;stroke-width:0.5;" x="34.741356" xlink:href="#mcdf18b0e30" y="175.379712"/>
      </g>
     </g>
     <g id="text_8">
      <!-- $0.1$ -->
      <g transform="translate(18.441356 178.419087)scale(0.08 -0.08)">
       <use transform="translate(0 0.78125)" xlink:href="#DejaVuSans-30"/>
       <use transform="translate(63.623047 0.78125)" xlink:href="#DejaVuSans-2e"/>
       <use transform="translate(95.410156 0.78125)" xlink:href="#DejaVuSans-31"/>
      </g>
     </g>
    </g>
    <g id="ytick_3">
     <g id="line2d_15">
      <path clip-path="url(#p6dc8a689a0)" d="M 34.741356 99.762109 
L 429.165354 99.762109 
" style="fill:none;stroke:#000000;stroke-linecap:square;stroke-opacity:0.1;stroke-width:0.5;"/>
     </g>
     <g id="line2d_16">
      <g>
       <use style="stroke:#000000;stroke-width:0.5;" x="34.741356" xlink:href="#mcdf18b0e30" y="99.762109"/>
      </g>
     </g>
     <g id="text_9">
      <!-- $0.2$ -->
      <g transform="translate(18.921356 102.801484)scale(0.08 -0.08)">
       <use transform="translate(0 0.78125)" xlink:href="#DejaVuSans-30"/>
       <use transform="translate(63.623047 0.78125)" xlink:href="#DejaVuSans-2e"/>
       <use transform="translate(89.910156 0.78125)" xlink:href="#DejaVuSans-32"/>
      </g>
     </g>
    </g>
    <g id="ytick_4">
     <g id="line2d_17">
      <path clip-path="url(#p6dc8a689a0)" d="M 34.741356 24.144505 
L 429.165354 24.144505 
" style="fill:none;stroke:#000000;stroke-linecap:square;stroke-opacity:0.1;stroke-width:0.5;"/>
     </g>
     <g id="line2d_18">
      <g>
       <use style="stroke:#000000;stroke-width:0.5;" x="34.741356" xlink:href="#mcdf18b0e30" y="24.144505"/>
      </g>
     </g>
     <g id="text_10">
      <!-- $0.3$ -->
      <g transform="translate(18.441356 27.18388)scale(0.08 -0.08)">
       <defs>
        <path d="M 2597 2516 
Q 3050 2419 3304 2112 
Q 3559 1806 3559 1356 
Q 3559 666 3084 287 
Q 2609 -91 1734 -91 
Q 1441 -91 1130 -33 
Q 819 25 488 141 
L 488 750 
Q 750 597 1062 519 
Q 1375 441 1716 441 
Q 2309 441 2620 675 
Q 2931 909 2931 1356 
Q 2931 1769 2642 2001 
Q 2353 2234 1838 2234 
L 1294 2234 
L 1294 2753 
L 1863 2753 
Q 2328 2753 2575 2939 
Q 2822 3125 2822 3475 
Q 2822 3834 2567 4026 
Q 2313 4219 1838 4219 
Q 1578 4219 1281 4162 
Q 984 4106 628 3988 
L 628 4550 
Q 988 4650 1302 4700 
Q 1616 4750 1894 4750 
Q 2613 4750 3031 4423 
Q 3450 4097 3450 3541 
Q 3450 3153 3228 2886 
Q 3006 2619 2597 2516 
z
" id="DejaVuSans-33" transform="scale(0.015625)"/>
       </defs>
       <use transform="translate(0 0.78125)" xlink:href="#DejaVuSans-30"/>
       <use transform="translate(63.623047 0.78125)" xlink:href="#DejaVuSans-2e"/>
       <use transform="translate(95.410156 0.78125)" xlink:href="#DejaVuSans-33"/>
      </g>
     </g>
    </g>
    <g id="text_11">
     <!-- P(radius) -->
     <g transform="translate(12.1537 155.139922)rotate(-90)scale(0.11 -0.11)">
      <defs>
       <path d="M 1259 4147 
L 1259 2394 
L 2053 2394 
Q 2494 2394 2734 2622 
Q 2975 2850 2975 3272 
Q 2975 3691 2734 3919 
Q 2494 4147 2053 4147 
L 1259 4147 
z
M 628 4666 
L 2053 4666 
Q 2838 4666 3239 4311 
Q 3641 3956 3641 3272 
Q 3641 2581 3239 2228 
Q 2838 1875 2053 1875 
L 1259 1875 
L 1259 0 
L 628 0 
L 628 4666 
z
" id="DejaVuSans-50" transform="scale(0.015625)"/>
       <path d="M 1984 4856 
Q 1566 4138 1362 3434 
Q 1159 2731 1159 2009 
Q 1159 1288 1364 580 
Q 1569 -128 1984 -844 
L 1484 -844 
Q 1016 -109 783 600 
Q 550 1309 550 2009 
Q 550 2706 781 3412 
Q 1013 4119 1484 4856 
L 1984 4856 
z
" id="DejaVuSans-28" transform="scale(0.015625)"/>
       <path d="M 513 4856 
L 1013 4856 
Q 1481 4119 1714 3412 
Q 1947 2706 1947 2009 
Q 1947 1309 1714 600 
Q 1481 -109 1013 -844 
L 513 -844 
Q 928 -128 1133 580 
Q 1338 1288 1338 2009 
Q 1338 2731 1133 3434 
Q 928 4138 513 4856 
z
" id="DejaVuSans-29" transform="scale(0.015625)"/>
      </defs>
      <use xlink:href="#DejaVuSans-50"/>
      <use x="60.302734" xlink:href="#DejaVuSans-28"/>
      <use x="99.316406" xlink:href="#DejaVuSans-72"/>
      <use x="140.429688" xlink:href="#DejaVuSans-61"/>
      <use x="201.708984" xlink:href="#DejaVuSans-64"/>
      <use x="265.185547" xlink:href="#DejaVuSans-69"/>
      <use x="292.96875" xlink:href="#DejaVuSans-75"/>
      <use x="356.347656" xlink:href="#DejaVuSans-73"/>
      <use x="408.447266" xlink:href="#DejaVuSans-29"/>
     </g>
    </g>
   </g>
   <g id="line2d_19">
    <path clip-path="url(#p6dc8a689a0)" d="M 59.094741 11.231684 
L 64.413468 34.048401 
L 69.732194 54.69382 
L 75.050921 73.374567 
L 80.369647 90.277606 
L 85.688374 105.572109 
L 91.007101 119.411147 
L 96.325827 131.933227 
L 101.644554 143.263673 
L 106.96328 153.515884 
L 112.282007 162.792469 
L 117.600734 171.18627 
L 122.91946 178.781295 
L 128.238187 185.653558 
L 133.556913 191.871839 
L 138.87564 197.498372 
L 144.194366 202.589469 
L 149.513093 207.196085 
L 154.83182 211.364323 
L 160.150546 215.135901 
L 165.469273 218.548566 
L 170.787999 221.636473 
L 176.106726 224.430526 
L 181.425453 226.95869 
L 186.744179 229.246268 
L 192.062906 231.316154 
L 197.381632 233.189064 
L 202.700359 234.883743 
L 208.019085 236.417152 
L 213.337812 237.804638 
L 218.656539 239.060088 
L 223.975265 240.196065 
L 229.293992 241.22394 
L 234.612718 242.153999 
L 239.931445 242.995552 
L 245.250172 243.757021 
L 250.568898 244.446026 
L 255.887625 245.069463 
L 261.206351 245.633573 
L 266.525078 246.144001 
L 271.843804 246.605855 
L 277.162531 247.023757 
L 282.481258 247.401891 
L 287.799984 247.744041 
L 293.118711 248.053631 
L 298.437437 248.33376 
L 303.756164 248.587231 
L 309.074891 248.816581 
L 314.393617 249.024105 
L 319.712344 249.211881 
L 325.03107 249.381787 
L 330.349797 249.535525 
L 335.668523 249.674633 
L 340.98725 249.800503 
L 346.305977 249.914395 
L 351.624703 250.017448 
L 356.94343 250.110695 
L 362.262156 250.195068 
L 367.580883 250.271412 
L 372.89961 250.340491 
L 378.218336 250.402996 
L 383.537063 250.459553 
L 388.855789 250.510728 
L 394.174516 250.557033 
L 399.493242 250.598931 
L 404.811969 250.636842 
L 410.130696 250.671146 
" style="fill:none;stroke:#000000;stroke-width:3;"/>
   </g>
   <g id="patch_3">
    <path clip-path="url(#p6dc8a689a0)" d="M 56.435378 16.916559 
L 56.435378 250.997315 
L 61.754104 250.997315 
L 61.754104 16.916559 
L 56.435378 16.916559 
" style="fill:#009afa;fill-opacity:0.5;"/>
   </g>
   <g id="patch_4">
    <path clip-path="url(#p6dc8a689a0)" d="M 61.754104 37.036254 
L 61.754104 250.997315 
L 67.072831 250.997315 
L 67.072831 37.036254 
L 61.754104 37.036254 
" style="fill:#009afa;fill-opacity:0.5;"/>
   </g>
   <g id="patch_5">
    <path clip-path="url(#p6dc8a689a0)" d="M 67.072831 51.314747 
L 67.072831 250.997315 
L 72.391558 250.997315 
L 72.391558 51.314747 
L 67.072831 51.314747 
" style="fill:#009afa;fill-opacity:0.5;"/>
   </g>
   <g id="patch_6">
    <path clip-path="url(#p6dc8a689a0)" d="M 72.391558 74.895896 
L 72.391558 250.997315 
L 77.710284 250.997315 
L 77.710284 74.895896 
L 72.391558 74.895896 
" style="fill:#009afa;fill-opacity:0.5;"/>
   </g>
   <g id="patch_7">
    <path clip-path="url(#p6dc8a689a0)" d="M 77.710284 88.092685 
L 77.710284 250.997315 
L 83.029011 250.997315 
L 83.029011 88.092685 
L 77.710284 88.092685 
" style="fill:#009afa;fill-opacity:0.5;"/>
   </g>
   <g id="patch_8">
    <path clip-path="url(#p6dc8a689a0)" d="M 83.029011 108.428721 
L 83.029011 250.997315 
L 88.347737 250.997315 
L 88.347737 108.428721 
L 83.029011 108.428721 
" style="fill:#009afa;fill-opacity:0.5;"/>
   </g>
   <g id="patch_9">
    <path clip-path="url(#p6dc8a689a0)" d="M 88.347737 121.40917 
L 88.347737 250.997315 
L 93.666464 250.997315 
L 93.666464 121.40917 
L 88.347737 121.40917 
" style="fill:#009afa;fill-opacity:0.5;"/>
   </g>
   <g id="patch_10">
    <path clip-path="url(#p6dc8a689a0)" d="M 93.666464 130.495484 
L 93.666464 250.997315 
L 98.985191 250.997315 
L 98.985191 130.495484 
L 93.666464 130.495484 
" style="fill:#009afa;fill-opacity:0.5;"/>
   </g>
   <g id="patch_11">
    <path clip-path="url(#p6dc8a689a0)" d="M 98.985191 142.82691 
L 98.985191 250.997315 
L 104.303917 250.997315 
L 104.303917 142.82691 
L 98.985191 142.82691 
" style="fill:#009afa;fill-opacity:0.5;"/>
   </g>
   <g id="patch_12">
    <path clip-path="url(#p6dc8a689a0)" d="M 104.303917 149.100794 
L 104.303917 250.997315 
L 109.622644 250.997315 
L 109.622644 149.100794 
L 104.303917 149.100794 
" style="fill:#009afa;fill-opacity:0.5;"/>
   </g>
   <g id="patch_13">
    <path clip-path="url(#p6dc8a689a0)" d="M 109.622644 161.43222 
L 109.622644 250.997315 
L 114.94137 250.997315 
L 114.94137 161.43222 
L 109.622644 161.43222 
" style="fill:#009afa;fill-opacity:0.5;"/>
   </g>
   <g id="patch_14">
    <path clip-path="url(#p6dc8a689a0)" d="M 114.94137 175.494373 
L 114.94137 250.997315 
L 120.260097 250.997315 
L 120.260097 175.494373 
L 114.94137 175.494373 
" style="fill:#009afa;fill-opacity:0.5;"/>
   </g>
   <g id="patch_15">
    <path clip-path="url(#p6dc8a689a0)" d="M 120.260097 178.306803 
L 120.260097 250.997315 
L 125.578823 250.997315 
L 125.578823 178.306803 
L 120.260097 178.306803 
" style="fill:#009afa;fill-opacity:0.5;"/>
   </g>
   <g id="patch_16">
    <path clip-path="url(#p6dc8a689a0)" d="M 125.578823 186.095072 
L 125.578823 250.997315 
L 130.89755 250.997315 
L 130.89755 186.095072 
L 125.578823 186.095072 
" style="fill:#009afa;fill-opacity:0.5;"/>
   </g>
   <g id="patch_17">
    <path clip-path="url(#p6dc8a689a0)" d="M 130.89755 193.883341 
L 130.89755 250.997315 
L 136.216277 250.997315 
L 136.216277 193.883341 
L 130.89755 193.883341 
" style="fill:#009afa;fill-opacity:0.5;"/>
   </g>
   <g id="patch_18">
    <path clip-path="url(#p6dc8a689a0)" d="M 136.216277 192.585297 
L 136.216277 250.997315 
L 141.535003 250.997315 
L 141.535003 192.585297 
L 136.216277 192.585297 
" style="fill:#009afa;fill-opacity:0.5;"/>
   </g>
   <g id="patch_19">
    <path clip-path="url(#p6dc8a689a0)" d="M 141.535003 201.022588 
L 141.535003 250.997315 
L 146.85373 250.997315 
L 146.85373 201.022588 
L 141.535003 201.022588 
" style="fill:#009afa;fill-opacity:0.5;"/>
   </g>
   <g id="patch_20">
    <path clip-path="url(#p6dc8a689a0)" d="M 146.85373 203.402337 
L 146.85373 250.997315 
L 152.172456 250.997315 
L 152.172456 203.402337 
L 146.85373 203.402337 
" style="fill:#009afa;fill-opacity:0.5;"/>
   </g>
   <g id="patch_21">
    <path clip-path="url(#p6dc8a689a0)" d="M 152.172456 212.921333 
L 152.172456 250.997315 
L 157.491183 250.997315 
L 157.491183 212.921333 
L 152.172456 212.921333 
" style="fill:#009afa;fill-opacity:0.5;"/>
   </g>
   <g id="patch_22">
    <path clip-path="url(#p6dc8a689a0)" d="M 157.491183 217.46449 
L 157.491183 250.997315 
L 162.80991 250.997315 
L 162.80991 217.46449 
L 157.491183 217.46449 
" style="fill:#009afa;fill-opacity:0.5;"/>
   </g>
   <g id="patch_23">
    <path clip-path="url(#p6dc8a689a0)" d="M 162.80991 216.382786 
L 162.80991 250.997315 
L 168.128636 250.997315 
L 168.128636 216.382786 
L 162.80991 216.382786 
" style="fill:#009afa;fill-opacity:0.5;"/>
   </g>
   <g id="patch_24">
    <path clip-path="url(#p6dc8a689a0)" d="M 168.128636 221.791306 
L 168.128636 250.997315 
L 173.447363 250.997315 
L 173.447363 221.791306 
L 168.128636 221.791306 
" style="fill:#009afa;fill-opacity:0.5;"/>
   </g>
   <g id="patch_25">
    <path clip-path="url(#p6dc8a689a0)" d="M 173.447363 223.738373 
L 173.447363 250.997315 
L 178.766089 250.997315 
L 178.766089 223.738373 
L 173.447363 223.738373 
" style="fill:#009afa;fill-opacity:0.5;"/>
   </g>
   <g id="patch_26">
    <path clip-path="url(#p6dc8a689a0)" d="M 178.766089 225.901781 
L 178.766089 250.997315 
L 184.084816 250.997315 
L 184.084816 225.901781 
L 178.766089 225.901781 
" style="fill:#009afa;fill-opacity:0.5;"/>
   </g>
   <g id="patch_27">
    <path clip-path="url(#p6dc8a689a0)" d="M 184.084816 228.930553 
L 184.084816 250.997315 
L 189.403542 250.997315 
L 189.403542 228.930553 
L 184.084816 228.930553 
" style="fill:#009afa;fill-opacity:0.5;"/>
   </g>
   <g id="patch_28">
    <path clip-path="url(#p6dc8a689a0)" d="M 189.403542 233.690051 
L 189.403542 250.997315 
L 194.722269 250.997315 
L 194.722269 233.690051 
L 189.403542 233.690051 
" style="fill:#009afa;fill-opacity:0.5;"/>
   </g>
   <g id="patch_29">
    <path clip-path="url(#p6dc8a689a0)" d="M 194.722269 231.959324 
L 194.722269 250.997315 
L 200.040996 250.997315 
L 200.040996 231.959324 
L 194.722269 231.959324 
" style="fill:#009afa;fill-opacity:0.5;"/>
   </g>
   <g id="patch_30">
    <path clip-path="url(#p6dc8a689a0)" d="M 200.040996 232.824687 
L 200.040996 250.997315 
L 205.359722 250.997315 
L 205.359722 232.824687 
L 200.040996 232.824687 
" style="fill:#009afa;fill-opacity:0.5;"/>
   </g>
   <g id="patch_31">
    <path clip-path="url(#p6dc8a689a0)" d="M 205.359722 237.151504 
L 205.359722 250.997315 
L 210.678449 250.997315 
L 210.678449 237.151504 
L 205.359722 237.151504 
" style="fill:#009afa;fill-opacity:0.5;"/>
   </g>
   <g id="patch_32">
    <path clip-path="url(#p6dc8a689a0)" d="M 210.678449 237.151504 
L 210.678449 250.997315 
L 215.997175 250.997315 
L 215.997175 237.151504 
L 210.678449 237.151504 
" style="fill:#009afa;fill-opacity:0.5;"/>
   </g>
   <g id="patch_33">
    <path clip-path="url(#p6dc8a689a0)" d="M 215.997175 236.935163 
L 215.997175 250.997315 
L 221.315902 250.997315 
L 221.315902 236.935163 
L 215.997175 236.935163 
" style="fill:#009afa;fill-opacity:0.5;"/>
   </g>
   <g id="patch_34">
    <path clip-path="url(#p6dc8a689a0)" d="M 221.315902 243.425387 
L 221.315902 250.997315 
L 226.634629 250.997315 
L 226.634629 243.425387 
L 221.315902 243.425387 
" style="fill:#009afa;fill-opacity:0.5;"/>
   </g>
   <g id="patch_35">
    <path clip-path="url(#p6dc8a689a0)" d="M 226.634629 242.127342 
L 226.634629 250.997315 
L 231.953355 250.997315 
L 231.953355 242.127342 
L 226.634629 242.127342 
" style="fill:#009afa;fill-opacity:0.5;"/>
   </g>
   <g id="patch_36">
    <path clip-path="url(#p6dc8a689a0)" d="M 231.953355 242.343683 
L 231.953355 250.997315 
L 237.272082 250.997315 
L 237.272082 242.343683 
L 231.953355 242.343683 
" style="fill:#009afa;fill-opacity:0.5;"/>
   </g>
   <g id="patch_37">
    <path clip-path="url(#p6dc8a689a0)" d="M 237.272082 244.723432 
L 237.272082 250.997315 
L 242.590808 250.997315 
L 242.590808 244.723432 
L 237.272082 244.723432 
" style="fill:#009afa;fill-opacity:0.5;"/>
   </g>
   <g id="patch_38">
    <path clip-path="url(#p6dc8a689a0)" d="M 242.590808 241.911001 
L 242.590808 250.997315 
L 247.909535 250.997315 
L 247.909535 241.911001 
L 242.590808 241.911001 
" style="fill:#009afa;fill-opacity:0.5;"/>
   </g>
   <g id="patch_39">
    <path clip-path="url(#p6dc8a689a0)" d="M 247.909535 242.127342 
L 247.909535 250.997315 
L 253.228261 250.997315 
L 253.228261 242.127342 
L 247.909535 242.127342 
" style="fill:#009afa;fill-opacity:0.5;"/>
   </g>
   <g id="patch_40">
    <path clip-path="url(#p6dc8a689a0)" d="M 253.228261 246.88684 
L 253.228261 250.997315 
L 258.546988 250.997315 
L 258.546988 246.88684 
L 253.228261 246.88684 
" style="fill:#009afa;fill-opacity:0.5;"/>
   </g>
   <g id="patch_41">
    <path clip-path="url(#p6dc8a689a0)" d="M 258.546988 246.670499 
L 258.546988 250.997315 
L 263.865715 250.997315 
L 263.865715 246.670499 
L 258.546988 246.670499 
" style="fill:#009afa;fill-opacity:0.5;"/>
   </g>
   <g id="patch_42">
    <path clip-path="url(#p6dc8a689a0)" d="M 263.865715 244.939773 
L 263.865715 250.997315 
L 269.184441 250.997315 
L 269.184441 244.939773 
L 263.865715 244.939773 
" style="fill:#009afa;fill-opacity:0.5;"/>
   </g>
   <g id="patch_43">
    <path clip-path="url(#p6dc8a689a0)" d="M 269.184441 244.29075 
L 269.184441 250.997315 
L 274.503168 250.997315 
L 274.503168 244.29075 
L 269.184441 244.29075 
" style="fill:#009afa;fill-opacity:0.5;"/>
   </g>
   <g id="patch_44">
    <path clip-path="url(#p6dc8a689a0)" d="M 274.503168 247.968544 
L 274.503168 250.997315 
L 279.821894 250.997315 
L 279.821894 247.968544 
L 274.503168 247.968544 
" style="fill:#009afa;fill-opacity:0.5;"/>
   </g>
   <g id="patch_45">
    <path clip-path="url(#p6dc8a689a0)" d="M 279.821894 246.021477 
L 279.821894 250.997315 
L 285.140621 250.997315 
L 285.140621 246.021477 
L 279.821894 246.021477 
" style="fill:#009afa;fill-opacity:0.5;"/>
   </g>
   <g id="patch_46">
    <path clip-path="url(#p6dc8a689a0)" d="M 285.140621 248.833907 
L 285.140621 250.997315 
L 290.459348 250.997315 
L 290.459348 248.833907 
L 285.140621 248.833907 
" style="fill:#009afa;fill-opacity:0.5;"/>
   </g>
   <g id="patch_47">
    <path clip-path="url(#p6dc8a689a0)" d="M 290.459348 248.401226 
L 290.459348 250.997315 
L 295.778074 250.997315 
L 295.778074 248.401226 
L 290.459348 248.401226 
" style="fill:#009afa;fill-opacity:0.5;"/>
   </g>
   <g id="patch_48">
    <path clip-path="url(#p6dc8a689a0)" d="M 295.778074 248.401226 
L 295.778074 250.997315 
L 301.096801 250.997315 
L 301.096801 248.401226 
L 295.778074 248.401226 
" style="fill:#009afa;fill-opacity:0.5;"/>
   </g>
   <g id="patch_49">
    <path clip-path="url(#p6dc8a689a0)" d="M 301.096801 248.833907 
L 301.096801 250.997315 
L 306.415527 250.997315 
L 306.415527 248.833907 
L 301.096801 248.833907 
" style="fill:#009afa;fill-opacity:0.5;"/>
   </g>
   <g id="patch_50">
    <path clip-path="url(#p6dc8a689a0)" d="M 306.415527 249.050248 
L 306.415527 250.997315 
L 311.734254 250.997315 
L 311.734254 249.050248 
L 306.415527 249.050248 
" style="fill:#009afa;fill-opacity:0.5;"/>
   </g>
   <g id="patch_51">
    <path clip-path="url(#p6dc8a689a0)" d="M 311.734254 248.617566 
L 311.734254 250.997315 
L 317.05298 250.997315 
L 317.05298 248.617566 
L 311.734254 248.617566 
" style="fill:#009afa;fill-opacity:0.5;"/>
   </g>
   <g id="patch_52">
    <path clip-path="url(#p6dc8a689a0)" d="M 317.05298 250.131952 
L 317.05298 250.997315 
L 322.371707 250.997315 
L 322.371707 250.131952 
L 317.05298 250.131952 
" style="fill:#009afa;fill-opacity:0.5;"/>
   </g>
   <g id="patch_53">
    <path clip-path="url(#p6dc8a689a0)" d="M 322.371707 249.915611 
L 322.371707 250.997315 
L 327.690434 250.997315 
L 327.690434 249.915611 
L 322.371707 249.915611 
" style="fill:#009afa;fill-opacity:0.5;"/>
   </g>
   <g id="patch_54">
    <path clip-path="url(#p6dc8a689a0)" d="M 327.690434 249.915611 
L 327.690434 250.997315 
L 333.00916 250.997315 
L 333.00916 249.915611 
L 327.690434 249.915611 
" style="fill:#009afa;fill-opacity:0.5;"/>
   </g>
   <g id="patch_55">
    <path clip-path="url(#p6dc8a689a0)" d="M 333.00916 248.401226 
L 333.00916 250.997315 
L 338.327887 250.997315 
L 338.327887 248.401226 
L 333.00916 248.401226 
" style="fill:#009afa;fill-opacity:0.5;"/>
   </g>
   <g id="patch_56">
    <path clip-path="url(#p6dc8a689a0)" d="M 338.327887 250.348293 
L 338.327887 250.997315 
L 343.646613 250.997315 
L 343.646613 250.348293 
L 338.327887 250.348293 
" style="fill:#009afa;fill-opacity:0.5;"/>
   </g>
   <g id="patch_57">
    <path clip-path="url(#p6dc8a689a0)" d="M 343.646613 249.699271 
L 343.646613 250.997315 
L 348.96534 250.997315 
L 348.96534 249.699271 
L 343.646613 249.699271 
" style="fill:#009afa;fill-opacity:0.5;"/>
   </g>
   <g id="patch_58">
    <path clip-path="url(#p6dc8a689a0)" d="M 348.96534 249.699271 
L 348.96534 250.997315 
L 354.284067 250.997315 
L 354.284067 249.699271 
L 348.96534 249.699271 
" style="fill:#009afa;fill-opacity:0.5;"/>
   </g>
   <g id="patch_59">
    <path clip-path="url(#p6dc8a689a0)" d="M 354.284067 250.564634 
L 354.284067 250.997315 
L 359.602793 250.997315 
L 359.602793 250.564634 
L 354.284067 250.564634 
" style="fill:#009afa;fill-opacity:0.5;"/>
   </g>
   <g id="patch_60">
    <path clip-path="url(#p6dc8a689a0)" d="M 359.602793 250.131952 
L 359.602793 250.997315 
L 364.92152 250.997315 
L 364.92152 250.131952 
L 359.602793 250.131952 
" style="fill:#009afa;fill-opacity:0.5;"/>
   </g>
   <g id="patch_61">
    <path clip-path="url(#p6dc8a689a0)" d="M 364.92152 249.699271 
L 364.92152 250.997315 
L 370.240246 250.997315 
L 370.240246 249.699271 
L 364.92152 249.699271 
" style="fill:#009afa;fill-opacity:0.5;"/>
   </g>
   <g id="patch_62">
    <path clip-path="url(#p6dc8a689a0)" d="M 370.240246 250.131952 
L 370.240246 250.997315 
L 375.558973 250.997315 
L 375.558973 250.131952 
L 370.240246 250.131952 
" style="fill:#009afa;fill-opacity:0.5;"/>
   </g>
   <g id="patch_63">
    <path clip-path="url(#p6dc8a689a0)" d="M 375.558973 250.348293 
L 375.558973 250.997315 
L 380.877699 250.997315 
L 380.877699 250.348293 
L 375.558973 250.348293 
" style="fill:#009afa;fill-opacity:0.5;"/>
   </g>
   <g id="patch_64">
    <path clip-path="url(#p6dc8a689a0)" d="M 380.877699 250.131952 
L 380.877699 250.997315 
L 386.196426 250.997315 
L 386.196426 250.131952 
L 380.877699 250.131952 
" style="fill:#009afa;fill-opacity:0.5;"/>
   </g>
   <g id="patch_65">
    <path clip-path="url(#p6dc8a689a0)" d="M 386.196426 249.915611 
L 386.196426 250.997315 
L 391.515153 250.997315 
L 391.515153 249.915611 
L 386.196426 249.915611 
" style="fill:#009afa;fill-opacity:0.5;"/>
   </g>
   <g id="patch_66">
    <path clip-path="url(#p6dc8a689a0)" d="M 391.515153 249.915611 
L 391.515153 250.997315 
L 396.833879 250.997315 
L 396.833879 249.915611 
L 391.515153 249.915611 
" style="fill:#009afa;fill-opacity:0.5;"/>
   </g>
   <g id="patch_67">
    <path clip-path="url(#p6dc8a689a0)" d="M 396.833879 250.348293 
L 396.833879 250.997315 
L 402.152606 250.997315 
L 402.152606 250.348293 
L 396.833879 250.348293 
" style="fill:#009afa;fill-opacity:0.5;"/>
   </g>
   <g id="patch_68">
    <path clip-path="url(#p6dc8a689a0)" d="M 402.152606 250.780975 
L 402.152606 250.997315 
L 407.471332 250.997315 
L 407.471332 250.780975 
L 402.152606 250.780975 
" style="fill:#009afa;fill-opacity:0.5;"/>
   </g>
   <g id="PathCollection_1">
    <defs>
     <path d="M 0 0 
C 0 0 0 0 0 0 
C 0 0 0 0 0 0 
C 0 0 0 0 0 0 
C 0 0 0 0 0 0 
C 0 0 0 0 0 0 
C 0 0 0 0 0 0 
C 0 0 0 0 0 0 
C 0 0 0 0 0 0 
z
" id="m88582ee525" style="stroke:#000000;stroke-opacity:0;"/>
    </defs>
    <g clip-path="url(#p6dc8a689a0)">
     <use style="fill:#e36f47;fill-opacity:0;stroke:#000000;stroke-opacity:0;" x="59.094741" xlink:href="#m88582ee525" y="16.916559"/>
     <use style="fill:#e36f47;fill-opacity:0;stroke:#000000;stroke-opacity:0;" x="64.413468" xlink:href="#m88582ee525" y="37.036254"/>
     <use style="fill:#e36f47;fill-opacity:0;stroke:#000000;stroke-opacity:0;" x="69.732194" xlink:href="#m88582ee525" y="51.314747"/>
     <use style="fill:#e36f47;fill-opacity:0;stroke:#000000;stroke-opacity:0;" x="75.050921" xlink:href="#m88582ee525" y="74.895896"/>
     <use style="fill:#e36f47;fill-opacity:0;stroke:#000000;stroke-opacity:0;" x="80.369647" xlink:href="#m88582ee525" y="88.092685"/>
     <use style="fill:#e36f47;fill-opacity:0;stroke:#000000;stroke-opacity:0;" x="85.688374" xlink:href="#m88582ee525" y="108.428721"/>
     <use style="fill:#e36f47;fill-opacity:0;stroke:#000000;stroke-opacity:0;" x="91.007101" xlink:href="#m88582ee525" y="121.40917"/>
     <use style="fill:#e36f47;fill-opacity:0;stroke:#000000;stroke-opacity:0;" x="96.325827" xlink:href="#m88582ee525" y="130.495484"/>
     <use style="fill:#e36f47;fill-opacity:0;stroke:#000000;stroke-opacity:0;" x="101.644554" xlink:href="#m88582ee525" y="142.82691"/>
     <use style="fill:#e36f47;fill-opacity:0;stroke:#000000;stroke-opacity:0;" x="106.96328" xlink:href="#m88582ee525" y="149.100794"/>
     <use style="fill:#e36f47;fill-opacity:0;stroke:#000000;stroke-opacity:0;" x="112.282007" xlink:href="#m88582ee525" y="161.43222"/>
     <use style="fill:#e36f47;fill-opacity:0;stroke:#000000;stroke-opacity:0;" x="117.600734" xlink:href="#m88582ee525" y="175.494373"/>
     <use style="fill:#e36f47;fill-opacity:0;stroke:#000000;stroke-opacity:0;" x="122.91946" xlink:href="#m88582ee525" y="178.306803"/>
     <use style="fill:#e36f47;fill-opacity:0;stroke:#000000;stroke-opacity:0;" x="128.238187" xlink:href="#m88582ee525" y="186.095072"/>
     <use style="fill:#e36f47;fill-opacity:0;stroke:#000000;stroke-opacity:0;" x="133.556913" xlink:href="#m88582ee525" y="193.883341"/>
     <use style="fill:#e36f47;fill-opacity:0;stroke:#000000;stroke-opacity:0;" x="138.87564" xlink:href="#m88582ee525" y="192.585297"/>
     <use style="fill:#e36f47;fill-opacity:0;stroke:#000000;stroke-opacity:0;" x="144.194366" xlink:href="#m88582ee525" y="201.022588"/>
     <use style="fill:#e36f47;fill-opacity:0;stroke:#000000;stroke-opacity:0;" x="149.513093" xlink:href="#m88582ee525" y="203.402337"/>
     <use style="fill:#e36f47;fill-opacity:0;stroke:#000000;stroke-opacity:0;" x="154.83182" xlink:href="#m88582ee525" y="212.921333"/>
     <use style="fill:#e36f47;fill-opacity:0;stroke:#000000;stroke-opacity:0;" x="160.150546" xlink:href="#m88582ee525" y="217.46449"/>
     <use style="fill:#e36f47;fill-opacity:0;stroke:#000000;stroke-opacity:0;" x="165.469273" xlink:href="#m88582ee525" y="216.382786"/>
     <use style="fill:#e36f47;fill-opacity:0;stroke:#000000;stroke-opacity:0;" x="170.787999" xlink:href="#m88582ee525" y="221.791306"/>
     <use style="fill:#e36f47;fill-opacity:0;stroke:#000000;stroke-opacity:0;" x="176.106726" xlink:href="#m88582ee525" y="223.738373"/>
     <use style="fill:#e36f47;fill-opacity:0;stroke:#000000;stroke-opacity:0;" x="181.425453" xlink:href="#m88582ee525" y="225.901781"/>
     <use style="fill:#e36f47;fill-opacity:0;stroke:#000000;stroke-opacity:0;" x="186.744179" xlink:href="#m88582ee525" y="228.930553"/>
     <use style="fill:#e36f47;fill-opacity:0;stroke:#000000;stroke-opacity:0;" x="192.062906" xlink:href="#m88582ee525" y="233.690051"/>
     <use style="fill:#e36f47;fill-opacity:0;stroke:#000000;stroke-opacity:0;" x="197.381632" xlink:href="#m88582ee525" y="231.959324"/>
     <use style="fill:#e36f47;fill-opacity:0;stroke:#000000;stroke-opacity:0;" x="202.700359" xlink:href="#m88582ee525" y="232.824687"/>
     <use style="fill:#e36f47;fill-opacity:0;stroke:#000000;stroke-opacity:0;" x="208.019085" xlink:href="#m88582ee525" y="237.151504"/>
     <use style="fill:#e36f47;fill-opacity:0;stroke:#000000;stroke-opacity:0;" x="213.337812" xlink:href="#m88582ee525" y="237.151504"/>
     <use style="fill:#e36f47;fill-opacity:0;stroke:#000000;stroke-opacity:0;" x="218.656539" xlink:href="#m88582ee525" y="236.935163"/>
     <use style="fill:#e36f47;fill-opacity:0;stroke:#000000;stroke-opacity:0;" x="223.975265" xlink:href="#m88582ee525" y="243.425387"/>
     <use style="fill:#e36f47;fill-opacity:0;stroke:#000000;stroke-opacity:0;" x="229.293992" xlink:href="#m88582ee525" y="242.127342"/>
     <use style="fill:#e36f47;fill-opacity:0;stroke:#000000;stroke-opacity:0;" x="234.612718" xlink:href="#m88582ee525" y="242.343683"/>
     <use style="fill:#e36f47;fill-opacity:0;stroke:#000000;stroke-opacity:0;" x="239.931445" xlink:href="#m88582ee525" y="244.723432"/>
     <use style="fill:#e36f47;fill-opacity:0;stroke:#000000;stroke-opacity:0;" x="245.250172" xlink:href="#m88582ee525" y="241.911001"/>
     <use style="fill:#e36f47;fill-opacity:0;stroke:#000000;stroke-opacity:0;" x="250.568898" xlink:href="#m88582ee525" y="242.127342"/>
     <use style="fill:#e36f47;fill-opacity:0;stroke:#000000;stroke-opacity:0;" x="255.887625" xlink:href="#m88582ee525" y="246.88684"/>
     <use style="fill:#e36f47;fill-opacity:0;stroke:#000000;stroke-opacity:0;" x="261.206351" xlink:href="#m88582ee525" y="246.670499"/>
     <use style="fill:#e36f47;fill-opacity:0;stroke:#000000;stroke-opacity:0;" x="266.525078" xlink:href="#m88582ee525" y="244.939773"/>
     <use style="fill:#e36f47;fill-opacity:0;stroke:#000000;stroke-opacity:0;" x="271.843804" xlink:href="#m88582ee525" y="244.29075"/>
     <use style="fill:#e36f47;fill-opacity:0;stroke:#000000;stroke-opacity:0;" x="277.162531" xlink:href="#m88582ee525" y="247.968544"/>
     <use style="fill:#e36f47;fill-opacity:0;stroke:#000000;stroke-opacity:0;" x="282.481258" xlink:href="#m88582ee525" y="246.021477"/>
     <use style="fill:#e36f47;fill-opacity:0;stroke:#000000;stroke-opacity:0;" x="287.799984" xlink:href="#m88582ee525" y="248.833907"/>
     <use style="fill:#e36f47;fill-opacity:0;stroke:#000000;stroke-opacity:0;" x="293.118711" xlink:href="#m88582ee525" y="248.401226"/>
     <use style="fill:#e36f47;fill-opacity:0;stroke:#000000;stroke-opacity:0;" x="298.437437" xlink:href="#m88582ee525" y="248.401226"/>
     <use style="fill:#e36f47;fill-opacity:0;stroke:#000000;stroke-opacity:0;" x="303.756164" xlink:href="#m88582ee525" y="248.833907"/>
     <use style="fill:#e36f47;fill-opacity:0;stroke:#000000;stroke-opacity:0;" x="309.074891" xlink:href="#m88582ee525" y="249.050248"/>
     <use style="fill:#e36f47;fill-opacity:0;stroke:#000000;stroke-opacity:0;" x="314.393617" xlink:href="#m88582ee525" y="248.617566"/>
     <use style="fill:#e36f47;fill-opacity:0;stroke:#000000;stroke-opacity:0;" x="319.712344" xlink:href="#m88582ee525" y="250.131952"/>
     <use style="fill:#e36f47;fill-opacity:0;stroke:#000000;stroke-opacity:0;" x="325.03107" xlink:href="#m88582ee525" y="249.915611"/>
     <use style="fill:#e36f47;fill-opacity:0;stroke:#000000;stroke-opacity:0;" x="330.349797" xlink:href="#m88582ee525" y="249.915611"/>
     <use style="fill:#e36f47;fill-opacity:0;stroke:#000000;stroke-opacity:0;" x="335.668523" xlink:href="#m88582ee525" y="248.401226"/>
     <use style="fill:#e36f47;fill-opacity:0;stroke:#000000;stroke-opacity:0;" x="340.98725" xlink:href="#m88582ee525" y="250.348293"/>
     <use style="fill:#e36f47;fill-opacity:0;stroke:#000000;stroke-opacity:0;" x="346.305977" xlink:href="#m88582ee525" y="249.699271"/>
     <use style="fill:#e36f47;fill-opacity:0;stroke:#000000;stroke-opacity:0;" x="351.624703" xlink:href="#m88582ee525" y="249.699271"/>
     <use style="fill:#e36f47;fill-opacity:0;stroke:#000000;stroke-opacity:0;" x="356.94343" xlink:href="#m88582ee525" y="250.564634"/>
     <use style="fill:#e36f47;fill-opacity:0;stroke:#000000;stroke-opacity:0;" x="362.262156" xlink:href="#m88582ee525" y="250.131952"/>
     <use style="fill:#e36f47;fill-opacity:0;stroke:#000000;stroke-opacity:0;" x="367.580883" xlink:href="#m88582ee525" y="249.699271"/>
     <use style="fill:#e36f47;fill-opacity:0;stroke:#000000;stroke-opacity:0;" x="372.89961" xlink:href="#m88582ee525" y="250.131952"/>
     <use style="fill:#e36f47;fill-opacity:0;stroke:#000000;stroke-opacity:0;" x="378.218336" xlink:href="#m88582ee525" y="250.348293"/>
     <use style="fill:#e36f47;fill-opacity:0;stroke:#000000;stroke-opacity:0;" x="383.537063" xlink:href="#m88582ee525" y="250.131952"/>
     <use style="fill:#e36f47;fill-opacity:0;stroke:#000000;stroke-opacity:0;" x="388.855789" xlink:href="#m88582ee525" y="249.915611"/>
     <use style="fill:#e36f47;fill-opacity:0;stroke:#000000;stroke-opacity:0;" x="394.174516" xlink:href="#m88582ee525" y="249.915611"/>
     <use style="fill:#e36f47;fill-opacity:0;stroke:#000000;stroke-opacity:0;" x="399.493242" xlink:href="#m88582ee525" y="250.348293"/>
     <use style="fill:#e36f47;fill-opacity:0;stroke:#000000;stroke-opacity:0;" x="404.811969" xlink:href="#m88582ee525" y="250.780975"/>
    </g>
   </g>
   <g id="patch_69">
    <path d="M 34.741356 258.225354 
L 34.741356 2.834646 
" style="fill:none;stroke:#000000;stroke-linecap:square;stroke-linejoin:miter;"/>
   </g>
   <g id="patch_70">
    <path d="M 34.741356 258.225354 
L 429.165354 258.225354 
" style="fill:none;stroke:#000000;stroke-linecap:square;stroke-linejoin:miter;"/>
   </g>
   <g id="patch_71">
    <path clip-path="url(#p6dc8a689a0)" d="M 56.435378 10.062685 
L 56.435378 250.997315 
L 61.754104 250.997315 
L 61.754104 10.062685 
L 56.435378 10.062685 
" style="fill:#e36f47;fill-opacity:0.5;"/>
   </g>
   <g id="patch_72">
    <path clip-path="url(#p6dc8a689a0)" d="M 61.754104 33.492644 
L 61.754104 250.997315 
L 67.072831 250.997315 
L 67.072831 33.492644 
L 61.754104 33.492644 
" style="fill:#e36f47;fill-opacity:0.5;"/>
   </g>
   <g id="patch_73">
    <path clip-path="url(#p6dc8a689a0)" d="M 67.072831 49.872882 
L 67.072831 250.997315 
L 72.391558 250.997315 
L 72.391558 49.872882 
L 67.072831 49.872882 
" style="fill:#e36f47;fill-opacity:0.5;"/>
   </g>
   <g id="patch_74">
    <path clip-path="url(#p6dc8a689a0)" d="M 72.391558 76.309341 
L 72.391558 250.997315 
L 77.710284 250.997315 
L 77.710284 76.309341 
L 72.391558 76.309341 
" style="fill:#e36f47;fill-opacity:0.5;"/>
   </g>
   <g id="patch_75">
    <path clip-path="url(#p6dc8a689a0)" d="M 77.710284 85.225166 
L 77.710284 250.997315 
L 83.029011 250.997315 
L 83.029011 85.225166 
L 77.710284 85.225166 
" style="fill:#e36f47;fill-opacity:0.5;"/>
   </g>
   <g id="patch_76">
    <path clip-path="url(#p6dc8a689a0)" d="M 83.029011 106.789023 
L 83.029011 250.997315 
L 88.347737 250.997315 
L 88.347737 106.789023 
L 83.029011 106.789023 
" style="fill:#e36f47;fill-opacity:0.5;"/>
   </g>
   <g id="patch_77">
    <path clip-path="url(#p6dc8a689a0)" d="M 88.347737 124.517001 
L 88.347737 250.997315 
L 93.666464 250.997315 
L 93.666464 124.517001 
L 88.347737 124.517001 
" style="fill:#e36f47;fill-opacity:0.5;"/>
   </g>
   <g id="patch_78">
    <path clip-path="url(#p6dc8a689a0)" d="M 93.666464 133.329154 
L 93.666464 250.997315 
L 98.985191 250.997315 
L 98.985191 133.329154 
L 93.666464 133.329154 
" style="fill:#e36f47;fill-opacity:0.5;"/>
   </g>
   <g id="patch_79">
    <path clip-path="url(#p6dc8a689a0)" d="M 98.985191 139.65317 
L 98.985191 250.997315 
L 104.303917 250.997315 
L 104.303917 139.65317 
L 98.985191 139.65317 
" style="fill:#e36f47;fill-opacity:0.5;"/>
   </g>
   <g id="patch_80">
    <path clip-path="url(#p6dc8a689a0)" d="M 104.303917 144.629445 
L 104.303917 250.997315 
L 109.622644 250.997315 
L 109.622644 144.629445 
L 104.303917 144.629445 
" style="fill:#e36f47;fill-opacity:0.5;"/>
   </g>
   <g id="patch_81">
    <path clip-path="url(#p6dc8a689a0)" d="M 109.622644 160.594993 
L 109.622644 250.997315 
L 114.94137 250.997315 
L 114.94137 160.594993 
L 109.622644 160.594993 
" style="fill:#e36f47;fill-opacity:0.5;"/>
   </g>
   <g id="patch_82">
    <path clip-path="url(#p6dc8a689a0)" d="M 114.94137 174.072403 
L 114.94137 250.997315 
L 120.260097 250.997315 
L 120.260097 174.072403 
L 114.94137 174.072403 
" style="fill:#e36f47;fill-opacity:0.5;"/>
   </g>
   <g id="patch_83">
    <path clip-path="url(#p6dc8a689a0)" d="M 120.260097 176.664213 
L 120.260097 250.997315 
L 125.578823 250.997315 
L 125.578823 176.664213 
L 120.260097 176.664213 
" style="fill:#e36f47;fill-opacity:0.5;"/>
   </g>
   <g id="patch_84">
    <path clip-path="url(#p6dc8a689a0)" d="M 125.578823 179.359695 
L 125.578823 250.997315 
L 130.89755 250.997315 
L 130.89755 179.359695 
L 125.578823 179.359695 
" style="fill:#e36f47;fill-opacity:0.5;"/>
   </g>
   <g id="patch_85">
    <path clip-path="url(#p6dc8a689a0)" d="M 130.89755 194.392191 
L 130.89755 250.997315 
L 136.216277 250.997315 
L 136.216277 194.392191 
L 130.89755 194.392191 
" style="fill:#e36f47;fill-opacity:0.5;"/>
   </g>
   <g id="patch_86">
    <path clip-path="url(#p6dc8a689a0)" d="M 136.216277 198.124397 
L 136.216277 250.997315 
L 141.535003 250.997315 
L 141.535003 198.124397 
L 136.216277 198.124397 
" style="fill:#e36f47;fill-opacity:0.5;"/>
   </g>
   <g id="patch_87">
    <path clip-path="url(#p6dc8a689a0)" d="M 141.535003 205.796154 
L 141.535003 250.997315 
L 146.85373 250.997315 
L 146.85373 205.796154 
L 141.535003 205.796154 
" style="fill:#e36f47;fill-opacity:0.5;"/>
   </g>
   <g id="patch_88">
    <path clip-path="url(#p6dc8a689a0)" d="M 146.85373 206.314516 
L 146.85373 250.997315 
L 152.172456 250.997315 
L 152.172456 206.314516 
L 146.85373 206.314516 
" style="fill:#e36f47;fill-opacity:0.5;"/>
   </g>
   <g id="patch_89">
    <path clip-path="url(#p6dc8a689a0)" d="M 152.172456 214.504635 
L 152.172456 250.997315 
L 157.491183 250.997315 
L 157.491183 214.504635 
L 152.172456 214.504635 
" style="fill:#e36f47;fill-opacity:0.5;"/>
   </g>
   <g id="patch_90">
    <path clip-path="url(#p6dc8a689a0)" d="M 157.491183 216.8891 
L 157.491183 250.997315 
L 162.80991 250.997315 
L 162.80991 216.8891 
L 157.491183 216.8891 
" style="fill:#e36f47;fill-opacity:0.5;"/>
   </g>
   <g id="patch_91">
    <path clip-path="url(#p6dc8a689a0)" d="M 162.80991 217.822151 
L 162.80991 250.997315 
L 168.128636 250.997315 
L 168.128636 217.822151 
L 162.80991 217.822151 
" style="fill:#e36f47;fill-opacity:0.5;"/>
   </g>
   <g id="patch_92">
    <path clip-path="url(#p6dc8a689a0)" d="M 168.128636 221.24334 
L 168.128636 250.997315 
L 173.447363 250.997315 
L 173.447363 221.24334 
L 168.128636 221.24334 
" style="fill:#e36f47;fill-opacity:0.5;"/>
   </g>
   <g id="patch_93">
    <path clip-path="url(#p6dc8a689a0)" d="M 173.447363 224.871874 
L 173.447363 250.997315 
L 178.766089 250.997315 
L 178.766089 224.871874 
L 173.447363 224.871874 
" style="fill:#e36f47;fill-opacity:0.5;"/>
   </g>
   <g id="patch_94">
    <path clip-path="url(#p6dc8a689a0)" d="M 178.766089 230.159165 
L 178.766089 250.997315 
L 184.084816 250.997315 
L 184.084816 230.159165 
L 178.766089 230.159165 
" style="fill:#e36f47;fill-opacity:0.5;"/>
   </g>
   <g id="patch_95">
    <path clip-path="url(#p6dc8a689a0)" d="M 184.084816 231.403234 
L 184.084816 250.997315 
L 189.403542 250.997315 
L 189.403542 231.403234 
L 184.084816 231.403234 
" style="fill:#e36f47;fill-opacity:0.5;"/>
   </g>
   <g id="patch_96">
    <path clip-path="url(#p6dc8a689a0)" d="M 189.403542 229.848148 
L 189.403542 250.997315 
L 194.722269 250.997315 
L 194.722269 229.848148 
L 189.403542 229.848148 
" style="fill:#e36f47;fill-opacity:0.5;"/>
   </g>
   <g id="patch_97">
    <path clip-path="url(#p6dc8a689a0)" d="M 194.722269 234.202388 
L 194.722269 250.997315 
L 200.040996 250.997315 
L 200.040996 234.202388 
L 194.722269 234.202388 
" style="fill:#e36f47;fill-opacity:0.5;"/>
   </g>
   <g id="patch_98">
    <path clip-path="url(#p6dc8a689a0)" d="M 200.040996 233.684027 
L 200.040996 250.997315 
L 205.359722 250.997315 
L 205.359722 233.684027 
L 200.040996 233.684027 
" style="fill:#e36f47;fill-opacity:0.5;"/>
   </g>
   <g id="patch_99">
    <path clip-path="url(#p6dc8a689a0)" d="M 205.359722 237.623577 
L 205.359722 250.997315 
L 210.678449 250.997315 
L 210.678449 237.623577 
L 205.359722 237.623577 
" style="fill:#e36f47;fill-opacity:0.5;"/>
   </g>
   <g id="patch_100">
    <path clip-path="url(#p6dc8a689a0)" d="M 210.678449 237.519905 
L 210.678449 250.997315 
L 215.997175 250.997315 
L 215.997175 237.519905 
L 210.678449 237.519905 
" style="fill:#e36f47;fill-opacity:0.5;"/>
   </g>
   <g id="patch_101">
    <path clip-path="url(#p6dc8a689a0)" d="M 215.997175 239.386008 
L 215.997175 250.997315 
L 221.315902 250.997315 
L 221.315902 239.386008 
L 215.997175 239.386008 
" style="fill:#e36f47;fill-opacity:0.5;"/>
   </g>
   <g id="patch_102">
    <path clip-path="url(#p6dc8a689a0)" d="M 221.315902 241.148439 
L 221.315902 250.997315 
L 226.634629 250.997315 
L 226.634629 241.148439 
L 221.315902 241.148439 
" style="fill:#e36f47;fill-opacity:0.5;"/>
   </g>
   <g id="patch_103">
    <path clip-path="url(#p6dc8a689a0)" d="M 226.634629 240.526404 
L 226.634629 250.997315 
L 231.953355 250.997315 
L 231.953355 240.526404 
L 226.634629 240.526404 
" style="fill:#e36f47;fill-opacity:0.5;"/>
   </g>
   <g id="patch_104">
    <path clip-path="url(#p6dc8a689a0)" d="M 231.953355 242.703524 
L 231.953355 250.997315 
L 237.272082 250.997315 
L 237.272082 242.703524 
L 231.953355 242.703524 
" style="fill:#e36f47;fill-opacity:0.5;"/>
   </g>
   <g id="patch_105">
    <path clip-path="url(#p6dc8a689a0)" d="M 237.272082 242.910869 
L 237.272082 250.997315 
L 242.590808 250.997315 
L 242.590808 242.910869 
L 237.272082 242.910869 
" style="fill:#e36f47;fill-opacity:0.5;"/>
   </g>
   <g id="patch_106">
    <path clip-path="url(#p6dc8a689a0)" d="M 242.590808 244.569627 
L 242.590808 250.997315 
L 247.909535 250.997315 
L 247.909535 244.569627 
L 242.590808 244.569627 
" style="fill:#e36f47;fill-opacity:0.5;"/>
   </g>
   <g id="patch_107">
    <path clip-path="url(#p6dc8a689a0)" d="M 247.909535 245.295334 
L 247.909535 250.997315 
L 253.228261 250.997315 
L 253.228261 245.295334 
L 247.909535 245.295334 
" style="fill:#e36f47;fill-opacity:0.5;"/>
   </g>
   <g id="patch_108">
    <path clip-path="url(#p6dc8a689a0)" d="M 253.228261 244.776972 
L 253.228261 250.997315 
L 258.546988 250.997315 
L 258.546988 244.776972 
L 253.228261 244.776972 
" style="fill:#e36f47;fill-opacity:0.5;"/>
   </g>
   <g id="patch_109">
    <path clip-path="url(#p6dc8a689a0)" d="M 258.546988 245.917368 
L 258.546988 250.997315 
L 263.865715 250.997315 
L 263.865715 245.917368 
L 258.546988 245.917368 
" style="fill:#e36f47;fill-opacity:0.5;"/>
   </g>
   <g id="patch_110">
    <path clip-path="url(#p6dc8a689a0)" d="M 263.865715 245.813696 
L 263.865715 250.997315 
L 269.184441 250.997315 
L 269.184441 245.813696 
L 263.865715 245.813696 
" style="fill:#e36f47;fill-opacity:0.5;"/>
   </g>
   <g id="patch_111">
    <path clip-path="url(#p6dc8a689a0)" d="M 269.184441 246.85042 
L 269.184441 250.997315 
L 274.503168 250.997315 
L 274.503168 246.85042 
L 269.184441 246.85042 
" style="fill:#e36f47;fill-opacity:0.5;"/>
   </g>
   <g id="patch_112">
    <path clip-path="url(#p6dc8a689a0)" d="M 274.503168 246.746747 
L 274.503168 250.997315 
L 279.821894 250.997315 
L 279.821894 246.746747 
L 274.503168 246.746747 
" style="fill:#e36f47;fill-opacity:0.5;"/>
   </g>
   <g id="patch_113">
    <path clip-path="url(#p6dc8a689a0)" d="M 279.821894 246.43573 
L 279.821894 250.997315 
L 285.140621 250.997315 
L 285.140621 246.43573 
L 279.821894 246.43573 
" style="fill:#e36f47;fill-opacity:0.5;"/>
   </g>
   <g id="patch_114">
    <path clip-path="url(#p6dc8a689a0)" d="M 285.140621 247.576127 
L 285.140621 250.997315 
L 290.459348 250.997315 
L 290.459348 247.576127 
L 285.140621 247.576127 
" style="fill:#e36f47;fill-opacity:0.5;"/>
   </g>
   <g id="patch_115">
    <path clip-path="url(#p6dc8a689a0)" d="M 290.459348 248.094489 
L 290.459348 250.997315 
L 295.778074 250.997315 
L 295.778074 248.094489 
L 290.459348 248.094489 
" style="fill:#e36f47;fill-opacity:0.5;"/>
   </g>
   <g id="patch_116">
    <path clip-path="url(#p6dc8a689a0)" d="M 295.778074 248.820195 
L 295.778074 250.997315 
L 301.096801 250.997315 
L 301.096801 248.820195 
L 295.778074 248.820195 
" style="fill:#e36f47;fill-opacity:0.5;"/>
   </g>
   <g id="patch_117">
    <path clip-path="url(#p6dc8a689a0)" d="M 301.096801 249.02754 
L 301.096801 250.997315 
L 306.415527 250.997315 
L 306.415527 249.02754 
L 301.096801 249.02754 
" style="fill:#e36f47;fill-opacity:0.5;"/>
   </g>
   <g id="patch_118">
    <path clip-path="url(#p6dc8a689a0)" d="M 306.415527 248.61285 
L 306.415527 250.997315 
L 311.734254 250.997315 
L 311.734254 248.61285 
L 306.415527 248.61285 
" style="fill:#e36f47;fill-opacity:0.5;"/>
   </g>
   <g id="patch_119">
    <path clip-path="url(#p6dc8a689a0)" d="M 311.734254 249.44223 
L 311.734254 250.997315 
L 317.05298 250.997315 
L 317.05298 249.44223 
L 311.734254 249.44223 
" style="fill:#e36f47;fill-opacity:0.5;"/>
   </g>
   <g id="patch_120">
    <path clip-path="url(#p6dc8a689a0)" d="M 317.05298 248.923868 
L 317.05298 250.997315 
L 322.371707 250.997315 
L 322.371707 248.923868 
L 317.05298 248.923868 
" style="fill:#e36f47;fill-opacity:0.5;"/>
   </g>
   <g id="patch_121">
    <path clip-path="url(#p6dc8a689a0)" d="M 322.371707 249.649574 
L 322.371707 250.997315 
L 327.690434 250.997315 
L 327.690434 249.649574 
L 322.371707 249.649574 
" style="fill:#e36f47;fill-opacity:0.5;"/>
   </g>
   <g id="patch_122">
    <path clip-path="url(#p6dc8a689a0)" d="M 327.690434 249.856919 
L 327.690434 250.997315 
L 333.00916 250.997315 
L 333.00916 249.856919 
L 327.690434 249.856919 
" style="fill:#e36f47;fill-opacity:0.5;"/>
   </g>
   <g id="patch_123">
    <path clip-path="url(#p6dc8a689a0)" d="M 333.00916 250.064264 
L 333.00916 250.997315 
L 338.327887 250.997315 
L 338.327887 250.064264 
L 333.00916 250.064264 
" style="fill:#e36f47;fill-opacity:0.5;"/>
   </g>
   <g id="patch_124">
    <path clip-path="url(#p6dc8a689a0)" d="M 338.327887 250.478953 
L 338.327887 250.997315 
L 343.646613 250.997315 
L 343.646613 250.478953 
L 338.327887 250.478953 
" style="fill:#e36f47;fill-opacity:0.5;"/>
   </g>
   <g id="patch_125">
    <path clip-path="url(#p6dc8a689a0)" d="M 343.646613 249.960592 
L 343.646613 250.997315 
L 348.96534 250.997315 
L 348.96534 249.960592 
L 343.646613 249.960592 
" style="fill:#e36f47;fill-opacity:0.5;"/>
   </g>
   <g id="patch_126">
    <path clip-path="url(#p6dc8a689a0)" d="M 348.96534 249.545902 
L 348.96534 250.997315 
L 354.284067 250.997315 
L 354.284067 249.545902 
L 348.96534 249.545902 
" style="fill:#e36f47;fill-opacity:0.5;"/>
   </g>
   <g id="patch_127">
    <path clip-path="url(#p6dc8a689a0)" d="M 354.284067 249.649574 
L 354.284067 250.997315 
L 359.602793 250.997315 
L 359.602793 249.649574 
L 354.284067 249.649574 
" style="fill:#e36f47;fill-opacity:0.5;"/>
   </g>
   <g id="patch_128">
    <path clip-path="url(#p6dc8a689a0)" d="M 359.602793 250.271609 
L 359.602793 250.997315 
L 364.92152 250.997315 
L 364.92152 250.271609 
L 359.602793 250.271609 
" style="fill:#e36f47;fill-opacity:0.5;"/>
   </g>
   <g id="patch_129">
    <path clip-path="url(#p6dc8a689a0)" d="M 364.92152 249.856919 
L 364.92152 250.997315 
L 370.240246 250.997315 
L 370.240246 249.856919 
L 364.92152 249.856919 
" style="fill:#e36f47;fill-opacity:0.5;"/>
   </g>
   <g id="patch_130">
    <path clip-path="url(#p6dc8a689a0)" d="M 370.240246 250.478953 
L 370.240246 250.997315 
L 375.558973 250.997315 
L 375.558973 250.478953 
L 370.240246 250.478953 
" style="fill:#e36f47;fill-opacity:0.5;"/>
   </g>
   <g id="patch_131">
    <path clip-path="url(#p6dc8a689a0)" d="M 375.558973 250.375281 
L 375.558973 250.997315 
L 380.877699 250.997315 
L 380.877699 250.375281 
L 375.558973 250.375281 
" style="fill:#e36f47;fill-opacity:0.5;"/>
   </g>
   <g id="patch_132">
    <path clip-path="url(#p6dc8a689a0)" d="M 380.877699 250.271609 
L 380.877699 250.997315 
L 386.196426 250.997315 
L 386.196426 250.271609 
L 380.877699 250.271609 
" style="fill:#e36f47;fill-opacity:0.5;"/>
   </g>
   <g id="patch_133">
    <path clip-path="url(#p6dc8a689a0)" d="M 386.196426 250.478953 
L 386.196426 250.997315 
L 391.515153 250.997315 
L 391.515153 250.478953 
L 386.196426 250.478953 
" style="fill:#e36f47;fill-opacity:0.5;"/>
   </g>
   <g id="patch_134">
    <path clip-path="url(#p6dc8a689a0)" d="M 391.515153 250.167936 
L 391.515153 250.997315 
L 396.833879 250.997315 
L 396.833879 250.167936 
L 391.515153 250.167936 
" style="fill:#e36f47;fill-opacity:0.5;"/>
   </g>
   <g id="patch_135">
    <path clip-path="url(#p6dc8a689a0)" d="M 396.833879 250.789971 
L 396.833879 250.997315 
L 402.152606 250.997315 
L 402.152606 250.789971 
L 396.833879 250.789971 
" style="fill:#e36f47;fill-opacity:0.5;"/>
   </g>
   <g id="patch_136">
    <path clip-path="url(#p6dc8a689a0)" d="M 402.152606 250.789971 
L 402.152606 250.997315 
L 407.471332 250.997315 
L 407.471332 250.789971 
L 402.152606 250.789971 
" style="fill:#e36f47;fill-opacity:0.5;"/>
   </g>
   <g id="PathCollection_2">
    <defs>
     <path d="M 0 0 
C 0 0 0 0 0 0 
C 0 0 0 0 0 0 
C 0 0 0 0 0 0 
C 0 0 0 0 0 0 
C 0 0 0 0 0 0 
C 0 0 0 0 0 0 
C 0 0 0 0 0 0 
C 0 0 0 0 0 0 
z
" id="m737b252c15" style="stroke:#000000;stroke-opacity:0;"/>
    </defs>
    <g clip-path="url(#p6dc8a689a0)">
     <use style="fill:#3ea44e;fill-opacity:0;stroke:#000000;stroke-opacity:0;" x="59.094741" xlink:href="#m737b252c15" y="10.062685"/>
     <use style="fill:#3ea44e;fill-opacity:0;stroke:#000000;stroke-opacity:0;" x="64.413468" xlink:href="#m737b252c15" y="33.492644"/>
     <use style="fill:#3ea44e;fill-opacity:0;stroke:#000000;stroke-opacity:0;" x="69.732194" xlink:href="#m737b252c15" y="49.872882"/>
     <use style="fill:#3ea44e;fill-opacity:0;stroke:#000000;stroke-opacity:0;" x="75.050921" xlink:href="#m737b252c15" y="76.309341"/>
     <use style="fill:#3ea44e;fill-opacity:0;stroke:#000000;stroke-opacity:0;" x="80.369647" xlink:href="#m737b252c15" y="85.225166"/>
     <use style="fill:#3ea44e;fill-opacity:0;stroke:#000000;stroke-opacity:0;" x="85.688374" xlink:href="#m737b252c15" y="106.789023"/>
     <use style="fill:#3ea44e;fill-opacity:0;stroke:#000000;stroke-opacity:0;" x="91.007101" xlink:href="#m737b252c15" y="124.517001"/>
     <use style="fill:#3ea44e;fill-opacity:0;stroke:#000000;stroke-opacity:0;" x="96.325827" xlink:href="#m737b252c15" y="133.329154"/>
     <use style="fill:#3ea44e;fill-opacity:0;stroke:#000000;stroke-opacity:0;" x="101.644554" xlink:href="#m737b252c15" y="139.65317"/>
     <use style="fill:#3ea44e;fill-opacity:0;stroke:#000000;stroke-opacity:0;" x="106.96328" xlink:href="#m737b252c15" y="144.629445"/>
     <use style="fill:#3ea44e;fill-opacity:0;stroke:#000000;stroke-opacity:0;" x="112.282007" xlink:href="#m737b252c15" y="160.594993"/>
     <use style="fill:#3ea44e;fill-opacity:0;stroke:#000000;stroke-opacity:0;" x="117.600734" xlink:href="#m737b252c15" y="174.072403"/>
     <use style="fill:#3ea44e;fill-opacity:0;stroke:#000000;stroke-opacity:0;" x="122.91946" xlink:href="#m737b252c15" y="176.664213"/>
     <use style="fill:#3ea44e;fill-opacity:0;stroke:#000000;stroke-opacity:0;" x="128.238187" xlink:href="#m737b252c15" y="179.359695"/>
     <use style="fill:#3ea44e;fill-opacity:0;stroke:#000000;stroke-opacity:0;" x="133.556913" xlink:href="#m737b252c15" y="194.392191"/>
     <use style="fill:#3ea44e;fill-opacity:0;stroke:#000000;stroke-opacity:0;" x="138.87564" xlink:href="#m737b252c15" y="198.124397"/>
     <use style="fill:#3ea44e;fill-opacity:0;stroke:#000000;stroke-opacity:0;" x="144.194366" xlink:href="#m737b252c15" y="205.796154"/>
     <use style="fill:#3ea44e;fill-opacity:0;stroke:#000000;stroke-opacity:0;" x="149.513093" xlink:href="#m737b252c15" y="206.314516"/>
     <use style="fill:#3ea44e;fill-opacity:0;stroke:#000000;stroke-opacity:0;" x="154.83182" xlink:href="#m737b252c15" y="214.504635"/>
     <use style="fill:#3ea44e;fill-opacity:0;stroke:#000000;stroke-opacity:0;" x="160.150546" xlink:href="#m737b252c15" y="216.8891"/>
     <use style="fill:#3ea44e;fill-opacity:0;stroke:#000000;stroke-opacity:0;" x="165.469273" xlink:href="#m737b252c15" y="217.822151"/>
     <use style="fill:#3ea44e;fill-opacity:0;stroke:#000000;stroke-opacity:0;" x="170.787999" xlink:href="#m737b252c15" y="221.24334"/>
     <use style="fill:#3ea44e;fill-opacity:0;stroke:#000000;stroke-opacity:0;" x="176.106726" xlink:href="#m737b252c15" y="224.871874"/>
     <use style="fill:#3ea44e;fill-opacity:0;stroke:#000000;stroke-opacity:0;" x="181.425453" xlink:href="#m737b252c15" y="230.159165"/>
     <use style="fill:#3ea44e;fill-opacity:0;stroke:#000000;stroke-opacity:0;" x="186.744179" xlink:href="#m737b252c15" y="231.403234"/>
     <use style="fill:#3ea44e;fill-opacity:0;stroke:#000000;stroke-opacity:0;" x="192.062906" xlink:href="#m737b252c15" y="229.848148"/>
     <use style="fill:#3ea44e;fill-opacity:0;stroke:#000000;stroke-opacity:0;" x="197.381632" xlink:href="#m737b252c15" y="234.202388"/>
     <use style="fill:#3ea44e;fill-opacity:0;stroke:#000000;stroke-opacity:0;" x="202.700359" xlink:href="#m737b252c15" y="233.684027"/>
     <use style="fill:#3ea44e;fill-opacity:0;stroke:#000000;stroke-opacity:0;" x="208.019085" xlink:href="#m737b252c15" y="237.623577"/>
     <use style="fill:#3ea44e;fill-opacity:0;stroke:#000000;stroke-opacity:0;" x="213.337812" xlink:href="#m737b252c15" y="237.519905"/>
     <use style="fill:#3ea44e;fill-opacity:0;stroke:#000000;stroke-opacity:0;" x="218.656539" xlink:href="#m737b252c15" y="239.386008"/>
     <use style="fill:#3ea44e;fill-opacity:0;stroke:#000000;stroke-opacity:0;" x="223.975265" xlink:href="#m737b252c15" y="241.148439"/>
     <use style="fill:#3ea44e;fill-opacity:0;stroke:#000000;stroke-opacity:0;" x="229.293992" xlink:href="#m737b252c15" y="240.526404"/>
     <use style="fill:#3ea44e;fill-opacity:0;stroke:#000000;stroke-opacity:0;" x="234.612718" xlink:href="#m737b252c15" y="242.703524"/>
     <use style="fill:#3ea44e;fill-opacity:0;stroke:#000000;stroke-opacity:0;" x="239.931445" xlink:href="#m737b252c15" y="242.910869"/>
     <use style="fill:#3ea44e;fill-opacity:0;stroke:#000000;stroke-opacity:0;" x="245.250172" xlink:href="#m737b252c15" y="244.569627"/>
     <use style="fill:#3ea44e;fill-opacity:0;stroke:#000000;stroke-opacity:0;" x="250.568898" xlink:href="#m737b252c15" y="245.295334"/>
     <use style="fill:#3ea44e;fill-opacity:0;stroke:#000000;stroke-opacity:0;" x="255.887625" xlink:href="#m737b252c15" y="244.776972"/>
     <use style="fill:#3ea44e;fill-opacity:0;stroke:#000000;stroke-opacity:0;" x="261.206351" xlink:href="#m737b252c15" y="245.917368"/>
     <use style="fill:#3ea44e;fill-opacity:0;stroke:#000000;stroke-opacity:0;" x="266.525078" xlink:href="#m737b252c15" y="245.813696"/>
     <use style="fill:#3ea44e;fill-opacity:0;stroke:#000000;stroke-opacity:0;" x="271.843804" xlink:href="#m737b252c15" y="246.85042"/>
     <use style="fill:#3ea44e;fill-opacity:0;stroke:#000000;stroke-opacity:0;" x="277.162531" xlink:href="#m737b252c15" y="246.746747"/>
     <use style="fill:#3ea44e;fill-opacity:0;stroke:#000000;stroke-opacity:0;" x="282.481258" xlink:href="#m737b252c15" y="246.43573"/>
     <use style="fill:#3ea44e;fill-opacity:0;stroke:#000000;stroke-opacity:0;" x="287.799984" xlink:href="#m737b252c15" y="247.576127"/>
     <use style="fill:#3ea44e;fill-opacity:0;stroke:#000000;stroke-opacity:0;" x="293.118711" xlink:href="#m737b252c15" y="248.094489"/>
     <use style="fill:#3ea44e;fill-opacity:0;stroke:#000000;stroke-opacity:0;" x="298.437437" xlink:href="#m737b252c15" y="248.820195"/>
     <use style="fill:#3ea44e;fill-opacity:0;stroke:#000000;stroke-opacity:0;" x="303.756164" xlink:href="#m737b252c15" y="249.02754"/>
     <use style="fill:#3ea44e;fill-opacity:0;stroke:#000000;stroke-opacity:0;" x="309.074891" xlink:href="#m737b252c15" y="248.61285"/>
     <use style="fill:#3ea44e;fill-opacity:0;stroke:#000000;stroke-opacity:0;" x="314.393617" xlink:href="#m737b252c15" y="249.44223"/>
     <use style="fill:#3ea44e;fill-opacity:0;stroke:#000000;stroke-opacity:0;" x="319.712344" xlink:href="#m737b252c15" y="248.923868"/>
     <use style="fill:#3ea44e;fill-opacity:0;stroke:#000000;stroke-opacity:0;" x="325.03107" xlink:href="#m737b252c15" y="249.649574"/>
     <use style="fill:#3ea44e;fill-opacity:0;stroke:#000000;stroke-opacity:0;" x="330.349797" xlink:href="#m737b252c15" y="249.856919"/>
     <use style="fill:#3ea44e;fill-opacity:0;stroke:#000000;stroke-opacity:0;" x="335.668523" xlink:href="#m737b252c15" y="250.064264"/>
     <use style="fill:#3ea44e;fill-opacity:0;stroke:#000000;stroke-opacity:0;" x="340.98725" xlink:href="#m737b252c15" y="250.478953"/>
     <use style="fill:#3ea44e;fill-opacity:0;stroke:#000000;stroke-opacity:0;" x="346.305977" xlink:href="#m737b252c15" y="249.960592"/>
     <use style="fill:#3ea44e;fill-opacity:0;stroke:#000000;stroke-opacity:0;" x="351.624703" xlink:href="#m737b252c15" y="249.545902"/>
     <use style="fill:#3ea44e;fill-opacity:0;stroke:#000000;stroke-opacity:0;" x="356.94343" xlink:href="#m737b252c15" y="249.649574"/>
     <use style="fill:#3ea44e;fill-opacity:0;stroke:#000000;stroke-opacity:0;" x="362.262156" xlink:href="#m737b252c15" y="250.271609"/>
     <use style="fill:#3ea44e;fill-opacity:0;stroke:#000000;stroke-opacity:0;" x="367.580883" xlink:href="#m737b252c15" y="249.856919"/>
     <use style="fill:#3ea44e;fill-opacity:0;stroke:#000000;stroke-opacity:0;" x="372.89961" xlink:href="#m737b252c15" y="250.478953"/>
     <use style="fill:#3ea44e;fill-opacity:0;stroke:#000000;stroke-opacity:0;" x="378.218336" xlink:href="#m737b252c15" y="250.375281"/>
     <use style="fill:#3ea44e;fill-opacity:0;stroke:#000000;stroke-opacity:0;" x="383.537063" xlink:href="#m737b252c15" y="250.271609"/>
     <use style="fill:#3ea44e;fill-opacity:0;stroke:#000000;stroke-opacity:0;" x="388.855789" xlink:href="#m737b252c15" y="250.478953"/>
     <use style="fill:#3ea44e;fill-opacity:0;stroke:#000000;stroke-opacity:0;" x="394.174516" xlink:href="#m737b252c15" y="250.167936"/>
     <use style="fill:#3ea44e;fill-opacity:0;stroke:#000000;stroke-opacity:0;" x="399.493242" xlink:href="#m737b252c15" y="250.789971"/>
     <use style="fill:#3ea44e;fill-opacity:0;stroke:#000000;stroke-opacity:0;" x="404.811969" xlink:href="#m737b252c15" y="250.789971"/>
    </g>
   </g>
   <g id="legend_1">
    <g id="patch_137">
     <path d="M 319.724104 50.924646 
L 425.165354 50.924646 
L 425.165354 6.834646 
L 319.724104 6.834646 
z
" style="fill:#ffffff;stroke:#000000;stroke-linejoin:miter;"/>
    </g>
    <g id="line2d_20">
     <path d="M 326.124104 16.575896 
L 342.124104 16.575896 
" style="fill:none;stroke:#000000;stroke-linejoin:miter;"/>
    </g>
    <g id="line2d_21"/>
    <g id="text_12">
     <!-- Exponential(=3) -->
     <g transform="translate(348.524104 19.375896)scale(0.08 -0.08)">
      <defs>
       <path d="M 628 4666 
L 3578 4666 
L 3578 4134 
L 1259 4134 
L 1259 2753 
L 3481 2753 
L 3481 2222 
L 1259 2222 
L 1259 531 
L 3634 531 
L 3634 0 
L 628 0 
L 628 4666 
z
" id="DejaVuSans-45" transform="scale(0.015625)"/>
       <path d="M 3513 3500 
L 2247 1797 
L 3578 0 
L 2900 0 
L 1881 1375 
L 863 0 
L 184 0 
L 1544 1831 
L 300 3500 
L 978 3500 
L 1906 2253 
L 2834 3500 
L 3513 3500 
z
" id="DejaVuSans-78" transform="scale(0.015625)"/>
       <path d="M 1159 525 
L 1159 -1331 
L 581 -1331 
L 581 3500 
L 1159 3500 
L 1159 2969 
Q 1341 3281 1617 3432 
Q 1894 3584 2278 3584 
Q 2916 3584 3314 3078 
Q 3713 2572 3713 1747 
Q 3713 922 3314 415 
Q 2916 -91 2278 -91 
Q 1894 -91 1617 61 
Q 1341 213 1159 525 
z
M 3116 1747 
Q 3116 2381 2855 2742 
Q 2594 3103 2138 3103 
Q 1681 3103 1420 2742 
Q 1159 2381 1159 1747 
Q 1159 1113 1420 752 
Q 1681 391 2138 391 
Q 2594 391 2855 752 
Q 3116 1113 3116 1747 
z
" id="DejaVuSans-70" transform="scale(0.015625)"/>
       <path d="M 1959 3097 
Q 1497 3097 1228 2736 
Q 959 2375 959 1747 
Q 959 1119 1226 758 
Q 1494 397 1959 397 
Q 2419 397 2687 759 
Q 2956 1122 2956 1747 
Q 2956 2369 2687 2733 
Q 2419 3097 1959 3097 
z
M 1959 3584 
Q 2709 3584 3137 3096 
Q 3566 2609 3566 1747 
Q 3566 888 3137 398 
Q 2709 -91 1959 -91 
Q 1206 -91 779 398 
Q 353 888 353 1747 
Q 353 2609 779 3096 
Q 1206 3584 1959 3584 
z
" id="DejaVuSans-6f" transform="scale(0.015625)"/>
       <path d="M 3513 2113 
L 3513 0 
L 2938 0 
L 2938 2094 
Q 2938 2591 2744 2837 
Q 2550 3084 2163 3084 
Q 1697 3084 1428 2787 
Q 1159 2491 1159 1978 
L 1159 0 
L 581 0 
L 581 3500 
L 1159 3500 
L 1159 2956 
Q 1366 3272 1645 3428 
Q 1925 3584 2291 3584 
Q 2894 3584 3203 3211 
Q 3513 2838 3513 2113 
z
" id="DejaVuSans-6e" transform="scale(0.015625)"/>
       <path d="M 3597 1894 
L 3597 1613 
L 953 1613 
Q 991 1019 1311 708 
Q 1631 397 2203 397 
Q 2534 397 2845 478 
Q 3156 559 3463 722 
L 3463 178 
Q 3153 47 2828 -22 
Q 2503 -91 2169 -91 
Q 1331 -91 842 396 
Q 353 884 353 1716 
Q 353 2575 817 3079 
Q 1281 3584 2069 3584 
Q 2775 3584 3186 3129 
Q 3597 2675 3597 1894 
z
M 3022 2063 
Q 3016 2534 2758 2815 
Q 2500 3097 2075 3097 
Q 1594 3097 1305 2825 
Q 1016 2553 972 2059 
L 3022 2063 
z
" id="DejaVuSans-65" transform="scale(0.015625)"/>
       <path d="M 1172 4494 
L 1172 3500 
L 2356 3500 
L 2356 3053 
L 1172 3053 
L 1172 1153 
Q 1172 725 1289 603 
Q 1406 481 1766 481 
L 2356 481 
L 2356 0 
L 1766 0 
Q 1100 0 847 248 
Q 594 497 594 1153 
L 594 3053 
L 172 3053 
L 172 3500 
L 594 3500 
L 594 4494 
L 1172 4494 
z
" id="DejaVuSans-74" transform="scale(0.015625)"/>
       <path d="M 603 4863 
L 1178 4863 
L 1178 0 
L 603 0 
L 603 4863 
z
" id="DejaVuSans-6c" transform="scale(0.015625)"/>
       <path d="M 2953 2219 
L 963 2219 
Q 1009 1284 1225 888 
Q 1494 400 1959 400 
Q 2428 400 2688 891 
Q 2916 1322 2953 2219 
z
M 2944 2750 
Q 2856 3638 2688 3950 
Q 2419 4444 1959 4444 
Q 1481 4444 1228 3956 
Q 1028 3563 969 2750 
L 2944 2750 
z
M 1959 4913 
Q 2709 4913 3138 4250 
Q 3566 3591 3566 2422 
Q 3566 1256 3138 594 
Q 2709 -72 1959 -72 
Q 1206 -72 781 594 
Q 353 1256 353 2422 
Q 353 3591 781 4250 
Q 1206 4913 1959 4913 
z
" id="DejaVuSans-3b8" transform="scale(0.015625)"/>
       <path d="M 678 2906 
L 4684 2906 
L 4684 2381 
L 678 2381 
L 678 2906 
z
M 678 1631 
L 4684 1631 
L 4684 1100 
L 678 1100 
L 678 1631 
z
" id="DejaVuSans-3d" transform="scale(0.015625)"/>
      </defs>
      <use xlink:href="#DejaVuSans-45"/>
      <use x="63.183594" xlink:href="#DejaVuSans-78"/>
      <use x="122.363281" xlink:href="#DejaVuSans-70"/>
      <use x="185.839844" xlink:href="#DejaVuSans-6f"/>
      <use x="247.021484" xlink:href="#DejaVuSans-6e"/>
      <use x="310.400391" xlink:href="#DejaVuSans-65"/>
      <use x="371.923828" xlink:href="#DejaVuSans-6e"/>
      <use x="435.302734" xlink:href="#DejaVuSans-74"/>
      <use x="474.511719" xlink:href="#DejaVuSans-69"/>
      <use x="502.294922" xlink:href="#DejaVuSans-61"/>
      <use x="563.574219" xlink:href="#DejaVuSans-6c"/>
      <use x="591.357422" xlink:href="#DejaVuSans-28"/>
      <use x="630.371094" xlink:href="#DejaVuSans-3b8"/>
      <use x="691.552734" xlink:href="#DejaVuSans-3d"/>
      <use x="775.341797" xlink:href="#DejaVuSans-33"/>
      <use x="838.964844" xlink:href="#DejaVuSans-29"/>
     </g>
    </g>
    <g id="patch_138">
     <path d="M 326.124104 31.118396 
L 342.124104 31.118396 
L 342.124104 25.518396 
L 326.124104 25.518396 
z
" style="fill:#009afa;fill-opacity:0.5;"/>
    </g>
    <g id="text_13">
     <!-- =0.3 -->
     <g transform="translate(348.524104 31.118396)scale(0.08 -0.08)">
      <defs>
       <path d="M 2388 4863 
L 2388 3572 
Q 3009 3572 3425 3094 
Q 3853 2606 3853 1747 
Q 3853 888 3425 400 
Q 3009 -78 2388 -78 
L 2388 -1331 
L 1816 -1331 
L 1816 -78 
Q 1194 -78 775 400 
Q 350 888 350 1747 
Q 350 2606 775 3094 
Q 1194 3572 1816 3572 
L 1816 4863 
L 2388 4863 
z
M 2388 434 
Q 2741 434 2981 756 
Q 3244 1116 3247 1747 
Q 3250 2372 2981 2738 
Q 2741 3059 2388 3059 
L 2388 434 
z
M 1816 434 
L 1816 3059 
Q 1463 3059 1225 2738 
Q 953 2372 956 1747 
Q 959 1116 1225 756 
Q 1463 434 1816 434 
z
" id="DejaVuSans-3d5" transform="scale(0.015625)"/>
      </defs>
      <use xlink:href="#DejaVuSans-3d5"/>
      <use x="65.966797" xlink:href="#DejaVuSans-3d"/>
      <use x="149.755859" xlink:href="#DejaVuSans-30"/>
      <use x="213.378906" xlink:href="#DejaVuSans-2e"/>
      <use x="245.166016" xlink:href="#DejaVuSans-33"/>
     </g>
    </g>
    <g id="patch_139">
     <path d="M 326.124104 42.860896 
L 342.124104 42.860896 
L 342.124104 37.260896 
L 326.124104 37.260896 
z
" style="fill:#e36f47;fill-opacity:0.5;"/>
    </g>
    <g id="text_14">
     <!-- =0.6 -->
     <g transform="translate(348.524104 42.860896)scale(0.08 -0.08)">
      <defs>
       <path d="M 2113 2584 
Q 1688 2584 1439 2293 
Q 1191 2003 1191 1497 
Q 1191 994 1439 701 
Q 1688 409 2113 409 
Q 2538 409 2786 701 
Q 3034 994 3034 1497 
Q 3034 2003 2786 2293 
Q 2538 2584 2113 2584 
z
M 3366 4563 
L 3366 3988 
Q 3128 4100 2886 4159 
Q 2644 4219 2406 4219 
Q 1781 4219 1451 3797 
Q 1122 3375 1075 2522 
Q 1259 2794 1537 2939 
Q 1816 3084 2150 3084 
Q 2853 3084 3261 2657 
Q 3669 2231 3669 1497 
Q 3669 778 3244 343 
Q 2819 -91 2113 -91 
Q 1303 -91 875 529 
Q 447 1150 447 2328 
Q 447 3434 972 4092 
Q 1497 4750 2381 4750 
Q 2619 4750 2861 4703 
Q 3103 4656 3366 4563 
z
" id="DejaVuSans-36" transform="scale(0.015625)"/>
      </defs>
      <use xlink:href="#DejaVuSans-3d5"/>
      <use x="65.966797" xlink:href="#DejaVuSans-3d"/>
      <use x="149.755859" xlink:href="#DejaVuSans-30"/>
      <use x="213.378906" xlink:href="#DejaVuSans-2e"/>
      <use x="245.166016" xlink:href="#DejaVuSans-36"/>
     </g>
    </g>
   </g>
  </g>
 </g>
 <defs>
  <clipPath id="p6dc8a689a0">
   <rect height="255.390709" width="394.423998" x="34.741356" y="2.834646"/>
  </clipPath>
 </defs>
</svg>
